<svg width="213" height="99" viewBox="0 0 213 99" fill="none" xmlns="http://www.w3.org/2000/svg">
<path d="M47.5 26.5L1 82L47.5 1L100.5 92.5H3.5L71.5 80L47.5 26.5Z" fill="#3F3F3D"/>
<path d="M47.5 1V26.5M47.5 1L1 82L47.5 26.5M47.5 1L100.5 92.5M47.5 26.5L71.5 80M100.5 92.5L71.5 80M100.5 92.5H3.5L71.5 80" stroke="#4F514F"/>
<path d="M122.76 85.5352C122.76 87.5039 123.07 88.9622 123.689 89.9102C124.309 90.8581 125.243 91.332 126.492 91.332C127.367 91.332 128.096 91.0951 128.68 90.6211C129.272 90.1471 129.637 89.418 129.773 88.4336L132.262 88.5977C132.07 90.0195 131.464 91.1543 130.443 92.002C129.423 92.8496 128.128 93.2734 126.561 93.2734C124.492 93.2734 122.91 92.6217 121.816 91.3184C120.732 90.0059 120.189 88.0964 120.189 85.5898C120.189 83.1016 120.736 81.2057 121.83 79.9023C122.924 78.5898 124.492 77.9336 126.533 77.9336C128.046 77.9336 129.299 78.3255 130.293 79.1094C131.296 79.8932 131.924 80.9733 132.18 82.3496L129.65 82.541C129.523 81.7207 129.199 81.069 128.68 80.5859C128.16 80.1029 127.422 79.8613 126.465 79.8613C125.161 79.8613 124.218 80.2943 123.635 81.1602C123.051 82.026 122.76 83.4844 122.76 85.5352ZM134.941 93V81.6523C134.941 80.6133 134.914 79.4648 134.859 78.207H137.184C137.257 79.8841 137.293 80.8913 137.293 81.2285H137.348C137.74 79.9616 138.191 79.0957 138.701 78.6309C139.212 78.166 139.932 77.9336 140.861 77.9336C141.189 77.9336 141.522 77.9792 141.859 78.0703V80.3262C141.531 80.235 141.094 80.1895 140.547 80.1895C139.526 80.1895 138.747 80.6315 138.209 81.5156C137.671 82.3906 137.402 83.6484 137.402 85.2891V93H134.941ZM156.721 85.5898C156.721 88.1784 156.151 90.1061 155.012 91.373C153.872 92.64 152.218 93.2734 150.049 93.2734C147.889 93.2734 146.257 92.6172 145.154 91.3047C144.051 89.9831 143.5 88.0781 143.5 85.5898C143.5 80.4857 145.71 77.9336 150.131 77.9336C152.391 77.9336 154.055 78.5579 155.121 79.8066C156.188 81.0462 156.721 82.974 156.721 85.5898ZM154.137 85.5898C154.137 83.5482 153.831 82.0671 153.221 81.1465C152.619 80.2168 151.603 79.752 150.172 79.752C148.732 79.752 147.688 80.2259 147.041 81.1738C146.403 82.1126 146.084 83.5846 146.084 85.5898C146.084 87.5404 146.398 89.0078 147.027 89.9922C147.665 90.9674 148.663 91.4551 150.021 91.4551C151.498 91.4551 152.551 90.9811 153.18 90.0332C153.818 89.0853 154.137 87.6042 154.137 85.5898ZM173.961 93H171.104L168.52 82.541L168.027 80.2305C167.945 80.6406 167.818 81.2331 167.645 82.0078C167.471 82.7734 166.542 86.4375 164.855 93H162.012L157.869 78.207H160.303L162.805 88.2559C162.868 88.4746 163.064 89.377 163.393 90.9629L163.625 89.9512L166.715 78.207H169.354L171.938 88.3652L172.566 90.9629L172.99 89.0625L175.793 78.207H178.199L173.961 93ZM189.369 90.6211C188.913 91.569 188.307 92.248 187.551 92.6582C186.803 93.0684 185.874 93.2734 184.762 93.2734C182.893 93.2734 181.517 92.6445 180.633 91.3867C179.758 90.1289 179.32 88.224 179.32 85.6719C179.32 80.513 181.134 77.9336 184.762 77.9336C185.883 77.9336 186.817 78.1387 187.564 78.5488C188.312 78.959 188.913 79.6107 189.369 80.5039H189.396L189.369 78.8496V72.7109H191.83V89.9512C191.83 91.4915 191.857 92.5078 191.912 93H189.561C189.533 92.8542 189.501 92.5169 189.465 91.9883C189.438 91.4596 189.424 91.0039 189.424 90.6211H189.369ZM181.904 85.5898C181.904 87.6589 182.178 89.14 182.725 90.0332C183.271 90.9264 184.16 91.373 185.391 91.373C186.785 91.373 187.797 90.89 188.426 89.9238C189.055 88.9577 189.369 87.4583 189.369 85.4258C189.369 83.4661 189.055 82.0306 188.426 81.1191C187.797 80.2077 186.794 79.752 185.418 79.752C184.178 79.752 183.281 80.2122 182.725 81.1328C182.178 82.0443 181.904 83.5299 181.904 85.5898ZM208.934 93L203.15 84.5781L197.244 93H194.359L201.688 82.9922L194.92 73.7363H197.805L203.164 81.2969L208.373 73.7363H211.258L204.668 82.8965L211.818 93H208.934Z" fill="#3F3F3D"/>
</svg>
